<?xml version="1.0" encoding="utf-8"?>
<!-- Generator: Adobe Illustrator 16.0.0, SVG Export Plug-In . SVG Version: 6.00 Build 0)  -->
<!DOCTYPE svg PUBLIC "-//W3C//DTD SVG 1.1//EN" "http://www.w3.org/Graphics/SVG/1.1/DTD/svg11.dtd">
<svg version="1.1" id="Layer_1" xmlns="http://www.w3.org/2000/svg" xmlns:xlink="http://www.w3.org/1999/xlink" x="0px" y="0px"
	 width="95.42px" height="50.42px" viewBox="0 0 95.42 50.42" enable-background="new 0 0 95.42 50.42" xml:space="preserve">
<path fill="#FFFFFF" d="M14.93,21.94l-4.38,0.25c0-1.43-0.72-2.15-2.11-2.15c-0.55,0-0.97,0.13-1.27,0.38
	c-0.34,0.25-0.46,0.55-0.46,0.93c-0.04,0.25,0.08,0.51,0.34,0.76c0.21,0.25,0.76,0.55,1.64,0.93c1.14,0.46,2.02,0.93,2.74,1.35
	c0.72,0.42,1.26,1.01,1.69,1.64c0.46,0.72,0.63,1.56,0.63,2.61c-0.04,0.97-0.34,1.85-0.84,2.7c-0.51,0.8-1.26,1.52-2.19,2.02
	c-0.93,0.55-2.28,0.8-3.96,0.8c-2.36,0-4.05-0.5-5.02-1.52c-1.01-0.97-1.43-2.28-1.39-3.88v-0.34l4.43-0.34
	c-0.04,1.01,0.13,1.73,0.55,2.15c0.38,0.46,0.93,0.63,1.69,0.63c0.76,0,1.31-0.17,1.69-0.51c0.42-0.38,0.59-0.76,0.67-1.22
	c-0.04-0.34-0.13-0.63-0.38-0.93c-0.25-0.3-0.84-0.63-1.77-1.01c-2.19-0.88-3.58-1.69-4.13-2.4c-0.59-0.76-0.84-1.64-0.8-2.7
	c0-0.93,0.3-1.81,0.8-2.57c0.51-0.76,1.22-1.39,2.15-1.86c0.97-0.38,2.07-0.63,3.33-0.63C12.65,17.05,14.76,18.69,14.93,21.94
	L14.93,21.94z M30.87,17.34l-0.8,3.58h-7.67l-0.55,2.61h7.38l-0.8,3.37h-7.34l-0.76,3.2h8.26l-0.84,3.79H14.81l3.75-16.57H30.87
	L30.87,17.34z M33.78,17.34h6.96c0.84,0,1.56,0.04,2.06,0.13c0.59,0.08,1.1,0.3,1.6,0.63c0.51,0.34,0.89,0.76,1.1,1.31
	c0.3,0.59,0.42,1.18,0.38,1.81c0,0.84-0.25,1.64-0.72,2.4c-0.51,0.72-1.22,1.22-2.19,1.56v0.04c1.56,0.55,2.36,1.69,2.28,3.5
	c-0.04,1.31-0.55,2.49-1.6,3.58c-1.05,1.05-2.45,1.6-4.3,1.6h-9.27L33.78,17.34L33.78,17.34z M37.02,23.83h1.56
	c0.72,0,1.22-0.08,1.6-0.21c0.38-0.08,0.67-0.3,0.93-0.63c0.25-0.34,0.38-0.67,0.38-1.01c0-0.42-0.13-0.72-0.34-0.97
	c-0.25-0.21-0.72-0.34-1.47-0.34H37.7L37.02,23.83L37.02,23.83z M35.5,30.33h2.53c1.73,0,2.66-0.63,2.7-1.9
	c0-0.46-0.13-0.84-0.38-1.1s-0.72-0.38-1.52-0.38h-2.53L35.5,30.33L35.5,30.33z M50.13,17.34h8.6c1.48,0,2.53,0.42,3.21,1.26
	c0.63,0.84,0.97,1.9,0.93,3.08c-0.09,1.31-0.47,2.45-1.22,3.42c-0.76,0.93-1.9,1.56-3.54,1.81c0.93,0.89,1.98,3.2,3.16,7h-4.93
	c-0.38-1.22-0.8-2.49-1.31-3.96c-0.55-1.39-0.89-2.19-1.18-2.44c-0.25-0.25-0.63-0.34-1.01-0.34h-0.25l-1.52,6.74h-4.64L50.13,17.34
	L50.13,17.34z M53.3,24.09h0.89c1.47,0,2.45-0.08,2.87-0.21c0.47-0.17,0.8-0.42,1.01-0.8c0.21-0.38,0.34-0.67,0.34-1.01
	c0.04-0.46-0.09-0.76-0.34-1.01c-0.25-0.25-0.8-0.38-1.64-0.38h-2.36L53.3,24.09L53.3,24.09z M77.5,33.91h-4.6l-0.13-2.74h-4.89
	l-1.27,2.74H61.6l9.02-16.57h4.97L77.5,33.91L77.5,33.91z M72.6,27.67l-0.29-6.03h-0.04l-2.78,6.03H72.6L72.6,27.67z M95.2,17.34
	l-0.8,3.58h-7.63l-0.59,2.61h7.38l-0.8,3.37h-7.34l-0.76,3.2h8.31l-0.84,3.79H79.18l3.71-16.57H95.2L95.2,17.34z"/>
<polygon fill="#FFFFFF" points="37.61,0.18 66.28,0.18 65.06,6.21 36.31,6.21 37.61,0.18 "/>
<polygon fill="#FFFFFF" points="35.8,8.49 64.6,8.49 63.33,14.56 34.49,14.56 35.8,8.49 "/>
<polygon fill="#FFFFFF" points="29.98,35.76 58.99,35.76 57.72,41.83 28.68,41.83 29.98,35.76 "/>
<polygon fill="#FFFFFF" points="28.17,44.11 57.26,44.11 55.99,50.18 26.86,50.18 28.17,44.11 "/>
</svg>
