<?xml version="1.0" encoding="utf-8"?>
<!-- Generator: Adobe Illustrator 16.0.0, SVG Export Plug-In . SVG Version: 6.00 Build 0)  -->
<!DOCTYPE svg PUBLIC "-//W3C//DTD SVG 1.1//EN" "http://www.w3.org/Graphics/SVG/1.1/DTD/svg11.dtd" [
	<!ENTITY ns_extend "http://ns.adobe.com/Extensibility/1.0/">
	<!ENTITY ns_ai "http://ns.adobe.com/AdobeIllustrator/10.0/">
	<!ENTITY ns_graphs "http://ns.adobe.com/Graphs/1.0/">
	<!ENTITY ns_vars "http://ns.adobe.com/Variables/1.0/">
	<!ENTITY ns_imrep "http://ns.adobe.com/ImageReplacement/1.0/">
	<!ENTITY ns_sfw "http://ns.adobe.com/SaveForWeb/1.0/">
	<!ENTITY ns_custom "http://ns.adobe.com/GenericCustomNamespace/1.0/">
	<!ENTITY ns_adobe_xpath "http://ns.adobe.com/XPath/1.0/">
]>
<svg version="1.1" id="Layer_1" xmlns:x="&ns_extend;" xmlns:i="&ns_ai;" xmlns:graph="&ns_graphs;"
	 xmlns="http://www.w3.org/2000/svg" xmlns:xlink="http://www.w3.org/1999/xlink" x="0px" y="0px" width="50px" height="70px"
	 viewBox="0 0 50 70" enable-background="new 0 0 50 70" xml:space="preserve">
<metadata>
	<sfw  xmlns="&ns_sfw;">
		<slices></slices>
		<sliceSourceBounds  width="50" height="70" bottomLeftOrigin="true" x="-0.61" y="0.3"></sliceSourceBounds>
	</sfw>
</metadata>
<g>
	<circle fill="#FFFFFF" cx="25.19" cy="24.74" r="15.34"/>
	<g>
		<path fill="#1A618D" d="M24.89,0.2c-13.81,0-25,11.19-25,25c0,13.81,25,45,25,45s25-31.19,25-45C49.89,11.4,38.7,0.2,24.89,0.2z
			 M24.74,43.49c-9.6,0-17.39-7.79-17.39-17.4c0-9.6,7.79-17.39,17.39-17.39c9.61,0,17.4,7.79,17.4,17.39
			C42.15,35.71,34.36,43.49,24.74,43.49z"/>
	</g>
	<g enable-background="new    ">
		<path fill="#010101" d="M14.56,20.19l-0.31-0.77c0.43-0.2,0.83-0.34,1.19-0.44s0.81-0.14,1.34-0.14c0.93,0,1.63,0.25,2.12,0.75
			s0.72,1.13,0.72,1.89c0,0.17-0.01,0.34-0.03,0.5c-0.02,0.16-0.07,0.32-0.13,0.49c-0.06,0.16-0.12,0.3-0.16,0.42
			s-0.13,0.26-0.26,0.43c-0.12,0.17-0.22,0.3-0.28,0.38s-0.18,0.22-0.35,0.41s-0.29,0.31-0.35,0.38s-0.2,0.2-0.41,0.41
			c-0.21,0.21-0.34,0.34-0.4,0.4c-0.57,0.57-0.95,0.97-1.14,1.2c-0.43,0.54-0.69,1.05-0.77,1.54h4.08l0.11,0.76h-5.22
			c0-0.27,0.03-0.54,0.08-0.8c0.06-0.26,0.12-0.49,0.2-0.7c0.08-0.21,0.19-0.42,0.33-0.65c0.14-0.23,0.27-0.42,0.39-0.57
			c0.11-0.16,0.27-0.34,0.47-0.55c0.2-0.21,0.36-0.38,0.49-0.5c0.12-0.12,0.3-0.29,0.52-0.49c0.09-0.09,0.16-0.15,0.21-0.2
			c0.28-0.26,0.5-0.48,0.67-0.67s0.34-0.4,0.52-0.64s0.31-0.49,0.4-0.74c0.09-0.25,0.13-0.51,0.13-0.77c0-1.24-0.67-1.86-2.01-1.86
			c-0.31,0-0.64,0.04-0.98,0.12s-0.6,0.16-0.77,0.23C14.81,20.07,14.67,20.14,14.56,20.19z"/>
		<path fill="#010101" d="M26.31,25.96c0-0.78-0.16-1.37-0.49-1.78s-0.77-0.61-1.33-0.61c-0.75,0-1.38,0.19-1.89,0.57l-0.54-0.22
			v-4.95h4.72v0.77h-3.86l-0.11,3.5c0.45-0.31,1.02-0.47,1.69-0.47c0.85,0,1.53,0.29,2.04,0.86c0.51,0.58,0.76,1.35,0.76,2.33
			c0,0.93-0.29,1.65-0.88,2.15c-0.58,0.5-1.37,0.75-2.34,0.75c-0.37,0-0.8-0.05-1.29-0.14s-0.85-0.2-1.1-0.32l0.2-0.83
			c0.27,0.13,0.63,0.24,1.07,0.34s0.83,0.15,1.17,0.15c0.7,0,1.24-0.18,1.62-0.55C26.12,27.15,26.31,26.63,26.31,25.96z"/>
	</g>
	<g enable-background="new    ">
		<path fill="#010101" d="M30.94,22.53c0.26,0.25,0.39,0.59,0.39,1.03s-0.13,0.79-0.39,1.03c-0.26,0.25-0.57,0.37-0.93,0.37
			c-0.36,0-0.67-0.12-0.94-0.37c-0.27-0.25-0.4-0.59-0.4-1.03c0-0.44,0.13-0.79,0.4-1.03c0.26-0.25,0.58-0.37,0.94-0.37
			C30.37,22.16,30.68,22.29,30.94,22.53z M30.59,24.26c0.16-0.17,0.24-0.4,0.24-0.7s-0.08-0.53-0.24-0.69
			c-0.16-0.16-0.36-0.25-0.58-0.25c-0.22,0-0.42,0.08-0.59,0.25c-0.17,0.17-0.25,0.4-0.25,0.69c0,0.3,0.08,0.54,0.25,0.7
			c0.17,0.17,0.36,0.25,0.59,0.25C30.24,24.51,30.43,24.43,30.59,24.26z M33.39,21.82l0.48,0.16l-2.89,7.04l-0.46-0.17L33.39,21.82z
			 M35.09,26.42c0.26,0.25,0.39,0.59,0.39,1.03s-0.13,0.79-0.39,1.03c-0.26,0.25-0.57,0.37-0.93,0.37c-0.36,0-0.67-0.12-0.94-0.37
			c-0.26-0.25-0.4-0.59-0.4-1.03c0-0.44,0.13-0.79,0.4-1.03c0.27-0.25,0.58-0.37,0.94-0.37C34.52,26.05,34.83,26.17,35.09,26.42z
			 M34.74,28.15c0.16-0.17,0.24-0.4,0.24-0.7s-0.08-0.53-0.24-0.69c-0.16-0.16-0.36-0.25-0.58-0.25c-0.22,0-0.42,0.08-0.59,0.25
			c-0.17,0.17-0.25,0.4-0.25,0.69c0,0.3,0.08,0.54,0.25,0.7c0.17,0.17,0.36,0.25,0.59,0.25C34.38,28.4,34.58,28.32,34.74,28.15z"/>
	</g>
	<g>
		<path fill="#227ABF" d="M24.8,0.26c-13.46,0-24.23,10.77-24.23,24.23c0,14.14,10.77,24.91,24.23,24.91
			c14.14,0,24.91-10.77,24.91-24.91C49.71,11.03,38.94,0.26,24.8,0.26L24.8,0.26z M24.8,39.3c-8.08,0-14.81-6.06-14.81-14.81
			c0-8.08,6.73-14.81,14.81-14.81c8.08,0,14.81,6.73,14.81,14.81C39.61,33.24,32.88,39.3,24.8,39.3L24.8,39.3z"/>
	</g>
	<path fill="#1A618D" d="M39.61,24.49c0,8.75-6.73,14.81-14.81,14.81c-8.08,0-14.81-6.06-14.81-14.81c0-8.08,6.73-14.14,14.81-14.81
		c0-9.42,0-9.42,0-9.42c-13.46,0-24.23,10.77-24.23,24.23c0,14.14,10.77,24.91,24.23,24.91c14.14,0,24.91-10.77,24.91-24.91H39.61z"
		/>
</g>
</svg>
