<?xml version="1.0" encoding="utf-8"?>
<!-- Generator: Adobe Illustrator 16.0.0, SVG Export Plug-In . SVG Version: 6.00 Build 0)  -->
<!DOCTYPE svg PUBLIC "-//W3C//DTD SVG 1.1//EN" "http://www.w3.org/Graphics/SVG/1.1/DTD/svg11.dtd" [
	<!ENTITY ns_extend "http://ns.adobe.com/Extensibility/1.0/">
	<!ENTITY ns_ai "http://ns.adobe.com/AdobeIllustrator/10.0/">
	<!ENTITY ns_graphs "http://ns.adobe.com/Graphs/1.0/">
	<!ENTITY ns_vars "http://ns.adobe.com/Variables/1.0/">
	<!ENTITY ns_imrep "http://ns.adobe.com/ImageReplacement/1.0/">
	<!ENTITY ns_sfw "http://ns.adobe.com/SaveForWeb/1.0/">
	<!ENTITY ns_custom "http://ns.adobe.com/GenericCustomNamespace/1.0/">
	<!ENTITY ns_adobe_xpath "http://ns.adobe.com/XPath/1.0/">
]>
<svg version="1.1" id="Layer_1" xmlns:x="&ns_extend;" xmlns:i="&ns_ai;" xmlns:graph="&ns_graphs;"
	 xmlns="http://www.w3.org/2000/svg" xmlns:xlink="http://www.w3.org/1999/xlink" x="0px" y="0px" width="50px" height="70px"
	 viewBox="0 0 50 70" enable-background="new 0 0 50 70" xml:space="preserve">
<metadata>
	<sfw  xmlns="&ns_sfw;">
		<slices></slices>
		<sliceSourceBounds  width="50" height="70.59" bottomLeftOrigin="true" x="-0.5" y="0.06"></sliceSourceBounds>
	</sfw>
</metadata>
<g>
	<circle fill="#FFFFFF" cx="25.29" cy="24.97" r="15.34"/>
	<g>
		<path fill="#1A618D" d="M25,0.44c-13.81,0-25,11.19-25,25s25,45,25,45s25-31.19,25-45S38.81,0.44,25,0.44z M24.85,43.73
			c-9.6,0-17.39-7.79-17.39-17.4c0-9.6,7.79-17.39,17.39-17.39c9.61,0,17.4,7.79,17.4,17.39C42.25,35.94,34.46,43.73,24.85,43.73z"
			/>
	</g>
	<g enable-background="new    ">
		<path fill="#010101" d="M15.78,28.39h1.22v0.64h-3.47v-0.64h1.43v-6.8l-1.45,0.68l-0.24-0.59l-0.01-0.01l1.79-0.82h0.72V28.39z"/>
		<path fill="#010101" d="M18.46,24.91c0-0.44,0.01-0.83,0.04-1.16s0.07-0.67,0.13-1c0.06-0.33,0.15-0.61,0.26-0.84
			c0.11-0.23,0.26-0.44,0.43-0.62c0.17-0.18,0.39-0.32,0.64-0.41s0.54-0.13,0.88-0.13c0.29,0,0.55,0.04,0.78,0.11
			c0.23,0.08,0.43,0.18,0.59,0.31s0.31,0.3,0.42,0.5c0.12,0.2,0.21,0.42,0.29,0.64c0.07,0.22,0.13,0.49,0.18,0.78
			c0.04,0.3,0.07,0.58,0.09,0.87c0.02,0.28,0.02,0.6,0.02,0.95c0,0.35-0.01,0.67-0.02,0.95c-0.01,0.29-0.04,0.58-0.09,0.87
			c-0.04,0.3-0.1,0.56-0.18,0.78c-0.07,0.23-0.17,0.44-0.29,0.65s-0.26,0.37-0.43,0.5s-0.36,0.24-0.59,0.31
			c-0.23,0.08-0.49,0.11-0.77,0.11c-0.29,0-0.55-0.04-0.78-0.12c-0.23-0.08-0.43-0.18-0.6-0.32s-0.31-0.3-0.43-0.51
			c-0.12-0.21-0.22-0.42-0.29-0.65c-0.07-0.23-0.13-0.49-0.18-0.78c-0.04-0.3-0.07-0.59-0.09-0.87
			C18.47,25.58,18.46,25.26,18.46,24.91z M20.84,21.41c-0.22,0-0.41,0.03-0.58,0.1c-0.17,0.07-0.31,0.16-0.42,0.26
			s-0.21,0.25-0.29,0.43c-0.08,0.18-0.14,0.36-0.19,0.54c-0.04,0.18-0.08,0.4-0.1,0.66c-0.03,0.26-0.04,0.5-0.05,0.72
			s-0.01,0.48-0.01,0.78c0,0.4,0.01,0.73,0.02,1.01c0.01,0.28,0.04,0.56,0.08,0.84c0.04,0.29,0.1,0.52,0.18,0.71
			s0.17,0.36,0.29,0.51c0.12,0.15,0.27,0.26,0.45,0.33c0.18,0.07,0.39,0.11,0.63,0.11c0.23,0,0.43-0.04,0.6-0.12
			c0.18-0.08,0.32-0.18,0.43-0.29s0.21-0.28,0.29-0.49c0.08-0.21,0.14-0.4,0.18-0.56c0.04-0.16,0.07-0.39,0.09-0.68
			c0.02-0.29,0.03-0.51,0.04-0.67c0-0.16,0-0.39,0-0.7c0-0.39-0.01-0.73-0.02-1.01c-0.01-0.28-0.04-0.56-0.08-0.85
			c-0.04-0.28-0.1-0.52-0.17-0.7s-0.17-0.35-0.29-0.5c-0.12-0.15-0.27-0.26-0.45-0.33S21.08,21.41,20.84,21.41z"/>
		<path fill="#010101" d="M24.91,24.91c0-0.44,0.01-0.83,0.04-1.16s0.07-0.67,0.13-1c0.06-0.33,0.15-0.61,0.26-0.84
			c0.11-0.23,0.26-0.44,0.43-0.62c0.17-0.18,0.39-0.32,0.64-0.41c0.25-0.09,0.54-0.13,0.88-0.13c0.29,0,0.55,0.04,0.78,0.11
			c0.23,0.08,0.43,0.18,0.59,0.31s0.3,0.3,0.42,0.5s0.21,0.42,0.29,0.64c0.07,0.22,0.13,0.49,0.18,0.78
			c0.04,0.3,0.07,0.58,0.09,0.87c0.01,0.28,0.02,0.6,0.02,0.95c0,0.35-0.01,0.67-0.02,0.95c-0.01,0.29-0.04,0.58-0.09,0.87
			c-0.04,0.3-0.1,0.56-0.18,0.78c-0.07,0.23-0.17,0.44-0.29,0.65s-0.26,0.37-0.43,0.5c-0.16,0.13-0.36,0.24-0.59,0.31
			c-0.23,0.08-0.49,0.11-0.77,0.11c-0.29,0-0.55-0.04-0.78-0.12c-0.23-0.08-0.43-0.18-0.6-0.32c-0.16-0.13-0.31-0.3-0.43-0.51
			s-0.22-0.42-0.29-0.65c-0.07-0.23-0.13-0.49-0.18-0.78c-0.04-0.3-0.07-0.59-0.09-0.87C24.92,25.58,24.91,25.26,24.91,24.91z
			 M27.3,21.41c-0.22,0-0.41,0.03-0.58,0.1c-0.17,0.07-0.31,0.16-0.42,0.26s-0.21,0.25-0.29,0.43c-0.08,0.18-0.14,0.36-0.19,0.54
			c-0.04,0.18-0.08,0.4-0.1,0.66c-0.03,0.26-0.04,0.5-0.05,0.72c-0.01,0.22-0.01,0.48-0.01,0.78c0,0.4,0.01,0.73,0.02,1.01
			c0.01,0.28,0.04,0.56,0.08,0.84c0.04,0.29,0.1,0.52,0.18,0.71c0.08,0.19,0.17,0.36,0.29,0.51c0.12,0.15,0.27,0.26,0.45,0.33
			c0.18,0.07,0.39,0.11,0.63,0.11c0.23,0,0.43-0.04,0.6-0.12c0.18-0.08,0.32-0.18,0.43-0.29s0.21-0.28,0.29-0.49
			c0.08-0.21,0.14-0.4,0.18-0.56c0.04-0.16,0.07-0.39,0.09-0.68c0.02-0.29,0.03-0.51,0.04-0.67c0-0.16,0-0.39,0-0.7
			c0-0.39-0.01-0.73-0.02-1.01c-0.01-0.28-0.04-0.56-0.08-0.85c-0.04-0.28-0.1-0.52-0.17-0.7s-0.17-0.35-0.29-0.5
			c-0.12-0.15-0.27-0.26-0.45-0.33S27.53,21.41,27.3,21.41z"/>
	</g>
	<g enable-background="new    ">
		<path fill="#010101" d="M33.14,22.76c0.26,0.25,0.39,0.59,0.39,1.03s-0.13,0.79-0.39,1.03c-0.26,0.25-0.57,0.37-0.93,0.37
			c-0.36,0-0.67-0.12-0.94-0.37c-0.27-0.25-0.4-0.59-0.4-1.03c0-0.44,0.13-0.79,0.4-1.03c0.26-0.25,0.58-0.37,0.94-0.37
			C32.57,22.4,32.88,22.52,33.14,22.76z M32.79,24.49c0.16-0.17,0.24-0.4,0.24-0.7s-0.08-0.53-0.24-0.69
			c-0.16-0.16-0.36-0.25-0.58-0.25c-0.22,0-0.42,0.08-0.59,0.25c-0.17,0.17-0.25,0.4-0.25,0.69c0,0.3,0.08,0.54,0.25,0.7
			c0.17,0.17,0.36,0.25,0.59,0.25C32.43,24.75,32.62,24.66,32.79,24.49z M35.59,22.05l0.48,0.16l-2.89,7.04l-0.46-0.17L35.59,22.05z
			 M37.29,26.65c0.26,0.25,0.39,0.59,0.39,1.03s-0.13,0.79-0.39,1.03c-0.26,0.25-0.57,0.37-0.93,0.37c-0.36,0-0.67-0.12-0.94-0.37
			c-0.26-0.25-0.4-0.59-0.4-1.03c0-0.44,0.13-0.79,0.4-1.03c0.27-0.25,0.58-0.37,0.94-0.37C36.71,26.28,37.02,26.4,37.29,26.65z
			 M36.93,28.38c0.16-0.17,0.24-0.4,0.24-0.7s-0.08-0.53-0.24-0.69c-0.16-0.16-0.36-0.25-0.58-0.25c-0.22,0-0.42,0.08-0.59,0.25
			c-0.17,0.17-0.25,0.4-0.25,0.69c0,0.3,0.08,0.54,0.25,0.7c0.17,0.17,0.36,0.25,0.59,0.25C36.58,28.63,36.77,28.55,36.93,28.38z"/>
	</g>
	<g>
		<path fill="#1A618D" d="M24.91,0.49c-13.46,0-24.23,10.77-24.23,24.23c0,14.14,10.77,24.91,24.23,24.91
			c14.14,0,24.91-10.77,24.91-24.91C49.82,11.26,39.04,0.49,24.91,0.49L24.91,0.49z M24.91,39.53c-8.08,0-14.81-6.06-14.81-14.81
			c0-8.08,6.73-14.81,14.81-14.81s14.81,6.73,14.81,14.81C39.72,33.47,32.99,39.53,24.91,39.53L24.91,39.53z"/>
	</g>
	<path fill="#227ABF" d="M44.91,10.07c-2.58-3.58-6.11-6.4-10.27-8.14c-9.03-3.97-19.55-2.23-26.79,5
		c-5.98,5.98-8.38,13.84-7.2,21.33c1.63,11.84,11.69,20.85,24,20.85c10.68,0,19.44-6.15,23.08-14.97
		C51.13,26.32,50.19,17.12,44.91,10.07z M24.65,39.68c-7.07,0-12.59-5.15-14.31-11.85c-0.75-4.92,1.05-10.15,4.67-13.77
		c2.69-2.69,6.02-3.79,9.68-4l0,0c8.62,0,14.79,6.73,14.79,14.81S33.4,39.68,24.65,39.68z"/>
</g>
</svg>
