<?xml version="1.0" encoding="utf-8"?>
<!-- Generator: Adobe Illustrator 16.0.0, SVG Export Plug-In . SVG Version: 6.00 Build 0)  -->
<!DOCTYPE svg PUBLIC "-//W3C//DTD SVG 1.1//EN" "http://www.w3.org/Graphics/SVG/1.1/DTD/svg11.dtd" [
	<!ENTITY ns_extend "http://ns.adobe.com/Extensibility/1.0/">
	<!ENTITY ns_ai "http://ns.adobe.com/AdobeIllustrator/10.0/">
	<!ENTITY ns_graphs "http://ns.adobe.com/Graphs/1.0/">
	<!ENTITY ns_vars "http://ns.adobe.com/Variables/1.0/">
	<!ENTITY ns_imrep "http://ns.adobe.com/ImageReplacement/1.0/">
	<!ENTITY ns_sfw "http://ns.adobe.com/SaveForWeb/1.0/">
	<!ENTITY ns_custom "http://ns.adobe.com/GenericCustomNamespace/1.0/">
	<!ENTITY ns_adobe_xpath "http://ns.adobe.com/XPath/1.0/">
]>
<svg version="1.1" id="Layer_1" xmlns:x="&ns_extend;" xmlns:i="&ns_ai;" xmlns:graph="&ns_graphs;"
	 xmlns="http://www.w3.org/2000/svg" xmlns:xlink="http://www.w3.org/1999/xlink" x="0px" y="0px" width="50px" height="70px"
	 viewBox="0 0 50 70" enable-background="new 0 0 50 70" xml:space="preserve">
<metadata>
	<sfw  xmlns="&ns_sfw;">
		<slices></slices>
		<sliceSourceBounds  width="50" height="70.59" bottomLeftOrigin="true" x="0" y="-70.43"></sliceSourceBounds>
	</sfw>
</metadata>
<g>
	<circle fill="#FFFFFF" cx="25.29" cy="24.97" r="15.34"/>
	<g>
		<path fill="#1A618D" d="M25,0.44c-13.81,0-25,11.19-25,25c0,13.81,25,45,25,45s25-31.19,25-45C50,11.63,38.81,0.44,25,0.44z
			 M24.85,43.73c-9.6,0-17.39-7.79-17.39-17.4c0-9.6,7.79-17.39,17.39-17.39c9.61,0,17.4,7.79,17.4,17.39
			C42.25,35.94,34.46,43.73,24.85,43.73z"/>
	</g>
	<text transform="matrix(1 0 0 1 12.5166 29.0312)"><tspan x="0" y="0" fill="#010101" font-family="'Anaheim-Regular'" font-size="13.0578">100</tspan><tspan x="18" y="0" fill="#010101" font-family="'Anaheim-Regular'" font-size="10.4462">%</tspan></text>
	<g>
		<path fill="#1A618D" d="M24.91,0.49c-13.46,0-24.23,10.77-24.23,24.23c0,14.14,10.77,24.91,24.23,24.91
			c14.14,0,24.91-10.77,24.91-24.91C49.82,11.26,39.04,0.49,24.91,0.49L24.91,0.49z M24.91,39.53c-8.08,0-14.81-6.06-14.81-14.81
			c0-8.08,6.73-14.81,14.81-14.81c8.08,0,14.81,6.73,14.81,14.81C39.72,33.47,32.99,39.53,24.91,39.53L24.91,39.53z"/>
	</g>
	<path fill="#227ABF" d="M44.91,10.07c-2.58-3.58-6.11-6.4-10.27-8.14c-9.03-3.97-19.55-2.23-26.79,5
		c-5.98,5.98-8.38,13.84-7.2,21.33c1.63,11.84,11.69,20.85,24,20.85c10.68,0,19.44-6.15,23.08-14.97
		C51.13,26.32,50.19,17.12,44.91,10.07z M24.65,39.68c-7.07,0-12.59-5.15-14.31-11.85c-0.75-4.92,1.05-10.15,4.67-13.77
		c2.69-2.69,6.02-3.79,9.68-4l0,0c8.62,0,14.79,6.73,14.79,14.81S33.4,39.68,24.65,39.68z"/>
</g>
</svg>
