<?xml version="1.0" encoding="utf-8"?>
<!-- Generator: Adobe Illustrator 16.0.0, SVG Export Plug-In . SVG Version: 6.00 Build 0)  -->
<!DOCTYPE svg PUBLIC "-//W3C//DTD SVG 1.1//EN" "http://www.w3.org/Graphics/SVG/1.1/DTD/svg11.dtd" [
	<!ENTITY ns_extend "http://ns.adobe.com/Extensibility/1.0/">
	<!ENTITY ns_ai "http://ns.adobe.com/AdobeIllustrator/10.0/">
	<!ENTITY ns_graphs "http://ns.adobe.com/Graphs/1.0/">
	<!ENTITY ns_vars "http://ns.adobe.com/Variables/1.0/">
	<!ENTITY ns_imrep "http://ns.adobe.com/ImageReplacement/1.0/">
	<!ENTITY ns_sfw "http://ns.adobe.com/SaveForWeb/1.0/">
	<!ENTITY ns_custom "http://ns.adobe.com/GenericCustomNamespace/1.0/">
	<!ENTITY ns_adobe_xpath "http://ns.adobe.com/XPath/1.0/">
]>
<svg version="1.1" id="Layer_1" xmlns:x="&ns_extend;" xmlns:i="&ns_ai;" xmlns:graph="&ns_graphs;"
	 xmlns="http://www.w3.org/2000/svg" xmlns:xlink="http://www.w3.org/1999/xlink" x="0px" y="0px" width="50px" height="70px"
	 viewBox="0 0 50 70" enable-background="new 0 0 50 70" xml:space="preserve">
<metadata>
	<sfw  xmlns="&ns_sfw;">
		<slices></slices>
		<sliceSourceBounds  x="0.39" y="-69.98" height="69.97" width="49.73" bottomLeftOrigin="true"></sliceSourceBounds>
	</sfw>
</metadata>
<g>
	<circle fill="#FFFFFF" cx="25.47" cy="24.9" r="15.21"/>
	<g>
		<path fill="#1A618D" d="M25.18,0.57c-13.69,0-24.79,11.1-24.79,24.79c0,13.69,24.79,44.62,24.79,44.62s24.79-30.93,24.79-44.62
			C49.97,11.67,38.87,0.57,25.18,0.57z M25.03,43.5c-9.52,0-17.25-7.72-17.25-17.26C7.79,16.72,15.51,9,25.03,9
			c9.53,0,17.26,7.72,17.26,17.24C42.29,35.78,34.57,43.5,25.03,43.5z"/>
	</g>
	<g>
		<path fill="#010101" d="M17.87,29.2c-0.74,0-1.39-0.1-1.95-0.32l0.17-0.66c0.55,0.21,1.15,0.31,1.82,0.31
			c1.3,0,1.95-0.56,1.95-1.67c0-0.54-0.18-0.96-0.55-1.25c-0.37-0.29-0.8-0.44-1.32-0.44c-0.38,0-0.75,0.04-1.11,0.12l-0.06-0.65
			c0.45-0.06,0.82-0.12,1.12-0.19c0.3-0.07,0.57-0.17,0.83-0.29s0.45-0.29,0.57-0.49s0.19-0.44,0.19-0.72
			c0-0.44-0.14-0.77-0.42-1.01c-0.28-0.23-0.67-0.35-1.17-0.35c-0.61,0-1.23,0.11-1.86,0.32l-0.17-0.64c0.72-0.24,1.39-0.35,2-0.35
			c0.72,0,1.3,0.17,1.72,0.5c0.42,0.33,0.63,0.81,0.63,1.44c0,0.53-0.13,0.94-0.39,1.23c-0.26,0.29-0.66,0.52-1.19,0.68
			c0.51,0.05,0.96,0.28,1.34,0.7c0.38,0.42,0.57,0.91,0.57,1.47c0,0.33-0.05,0.63-0.15,0.89c-0.1,0.26-0.23,0.48-0.4,0.65
			c-0.17,0.17-0.37,0.31-0.6,0.42c-0.23,0.11-0.48,0.19-0.74,0.24C18.44,29.18,18.17,29.2,17.87,29.2z"/>
		<path fill="#010101" d="M22.26,25.06c0-0.43,0.01-0.82,0.04-1.15c0.03-0.34,0.07-0.67,0.13-0.99c0.06-0.33,0.15-0.61,0.26-0.84
			c0.11-0.23,0.26-0.44,0.43-0.62s0.38-0.32,0.63-0.4s0.54-0.13,0.87-0.13c0.29,0,0.54,0.04,0.77,0.11
			c0.23,0.08,0.43,0.18,0.59,0.31c0.16,0.13,0.3,0.3,0.42,0.5c0.12,0.2,0.21,0.42,0.29,0.64c0.07,0.22,0.13,0.48,0.17,0.77
			s0.07,0.58,0.09,0.86c0.02,0.28,0.02,0.6,0.02,0.95c0,0.35-0.01,0.66-0.02,0.94c-0.01,0.28-0.04,0.57-0.09,0.86
			s-0.1,0.55-0.17,0.78c-0.07,0.23-0.17,0.44-0.29,0.64s-0.26,0.37-0.42,0.5c-0.16,0.13-0.36,0.23-0.59,0.31
			c-0.23,0.08-0.49,0.11-0.77,0.11c-0.29,0-0.55-0.04-0.78-0.12c-0.23-0.08-0.43-0.18-0.59-0.31s-0.3-0.3-0.42-0.5
			c-0.12-0.2-0.22-0.42-0.29-0.64c-0.07-0.22-0.13-0.48-0.17-0.78c-0.04-0.29-0.07-0.58-0.08-0.86
			C22.27,25.71,22.26,25.4,22.26,25.06z M24.63,21.58c-0.22,0-0.41,0.03-0.57,0.1c-0.17,0.07-0.31,0.15-0.42,0.26
			c-0.11,0.11-0.21,0.25-0.29,0.43c-0.08,0.18-0.14,0.36-0.19,0.53c-0.04,0.17-0.08,0.39-0.1,0.65c-0.02,0.26-0.04,0.5-0.05,0.71
			C23,24.49,23,24.75,23,25.06c0,0.39,0.01,0.73,0.02,1c0.01,0.28,0.04,0.56,0.08,0.84c0.04,0.28,0.1,0.52,0.17,0.7
			c0.08,0.19,0.17,0.35,0.29,0.5c0.12,0.15,0.27,0.26,0.44,0.33c0.18,0.07,0.39,0.1,0.63,0.1c0.22,0,0.42-0.04,0.6-0.12
			c0.18-0.08,0.32-0.18,0.43-0.29c0.11-0.11,0.21-0.27,0.29-0.48s0.14-0.4,0.18-0.56c0.04-0.16,0.07-0.39,0.09-0.67
			c0.02-0.28,0.03-0.51,0.04-0.67s0-0.39,0-0.69c0-0.39-0.01-0.73-0.02-1c-0.01-0.28-0.04-0.56-0.08-0.84
			c-0.04-0.28-0.1-0.52-0.17-0.7c-0.07-0.18-0.17-0.35-0.29-0.5c-0.12-0.15-0.27-0.26-0.44-0.33
			C25.07,21.62,24.86,21.58,24.63,21.58z"/>
		<path fill="#010101" d="M30.42,22.92c0.26,0.24,0.39,0.58,0.39,1.02s-0.13,0.78-0.39,1.02s-0.57,0.37-0.92,0.37
			c-0.36,0-0.67-0.12-0.93-0.37c-0.26-0.25-0.39-0.59-0.39-1.02c0-0.44,0.13-0.78,0.39-1.02c0.26-0.24,0.57-0.36,0.93-0.36
			S30.16,22.68,30.42,22.92z M30.07,24.64c0.16-0.17,0.24-0.4,0.24-0.7s-0.08-0.53-0.24-0.69c-0.16-0.16-0.35-0.24-0.58-0.24
			c-0.22,0-0.42,0.08-0.58,0.25c-0.17,0.17-0.25,0.39-0.25,0.68c0,0.3,0.08,0.53,0.25,0.7c0.16,0.17,0.36,0.25,0.58,0.25
			C29.72,24.89,29.91,24.81,30.07,24.64z M32.85,22.22l0.47,0.16l-2.86,6.99L30,29.19L32.85,22.22z M34.53,26.78
			c0.26,0.24,0.39,0.58,0.39,1.02s-0.13,0.78-0.39,1.02c-0.26,0.24-0.57,0.37-0.92,0.37c-0.36,0-0.67-0.12-0.93-0.37
			c-0.26-0.25-0.39-0.59-0.39-1.02c0-0.44,0.13-0.78,0.39-1.02c0.26-0.24,0.57-0.36,0.93-0.36C33.96,26.41,34.27,26.54,34.53,26.78z
			 M34.18,28.5c0.16-0.17,0.24-0.4,0.24-0.7s-0.08-0.53-0.24-0.69c-0.16-0.16-0.35-0.24-0.58-0.24c-0.22,0-0.42,0.08-0.58,0.25
			c-0.17,0.17-0.25,0.39-0.25,0.68c0,0.3,0.08,0.53,0.25,0.7c0.16,0.17,0.36,0.25,0.58,0.25C33.83,28.75,34.02,28.66,34.18,28.5z"/>
	</g>
	<path fill="#1A618D" d="M25.39,0.02c-13.66,0-24.73,11.07-24.73,24.73c0,13.66,11.07,24.73,24.73,24.73
		c13.66,0,24.73-11.07,24.73-24.73C50.12,11.09,39.05,0.02,25.39,0.02z M25.39,39.11c-7.93,0-14.36-6.43-14.36-14.36
		c0-7.93,6.43-14.36,14.36-14.36c7.93,0,14.36,6.43,14.36,14.36C39.75,32.68,33.32,39.11,25.39,39.11z"/>
	<g>
		<path fill="#227ABF" d="M39.5,24.75c0,1.63-0.16,3.2-0.66,4.66c3.29,1.07,6.65,2.14,9.94,3.21c0.83-2.47,1.07-5.12,1.07-7.87
			C49.84,11.13,39,0.08,25,0.02c0,3.46,0,6.92,0,10.37C33,10.45,39.5,16.85,39.5,24.75z"/>
	</g>
</g>
</svg>
