<?xml version="1.0" encoding="utf-8"?>
<!-- Generator: Adobe Illustrator 16.0.0, SVG Export Plug-In . SVG Version: 6.00 Build 0)  -->
<!DOCTYPE svg PUBLIC "-//W3C//DTD SVG 1.1//EN" "http://www.w3.org/Graphics/SVG/1.1/DTD/svg11.dtd" [
	<!ENTITY ns_extend "http://ns.adobe.com/Extensibility/1.0/">
	<!ENTITY ns_ai "http://ns.adobe.com/AdobeIllustrator/10.0/">
	<!ENTITY ns_graphs "http://ns.adobe.com/Graphs/1.0/">
	<!ENTITY ns_vars "http://ns.adobe.com/Variables/1.0/">
	<!ENTITY ns_imrep "http://ns.adobe.com/ImageReplacement/1.0/">
	<!ENTITY ns_sfw "http://ns.adobe.com/SaveForWeb/1.0/">
	<!ENTITY ns_custom "http://ns.adobe.com/GenericCustomNamespace/1.0/">
	<!ENTITY ns_adobe_xpath "http://ns.adobe.com/XPath/1.0/">
]>
<svg version="1.1" id="Layer_1" xmlns:x="&ns_extend;" xmlns:i="&ns_ai;" xmlns:graph="&ns_graphs;"
	 xmlns="http://www.w3.org/2000/svg" xmlns:xlink="http://www.w3.org/1999/xlink" x="0px" y="0px" width="50px" height="70px"
	 viewBox="0 0 50 70" enable-background="new 0 0 50 70" xml:space="preserve">
<metadata>
	<sfw  xmlns="&ns_sfw;">
		<slices></slices>
		<sliceSourceBounds  x="0.39" y="-69.98" height="69.97" width="49.73" bottomLeftOrigin="true"></sliceSourceBounds>
	</sfw>
</metadata>
<g>
	<circle fill="#FFFFFF" cx="25.47" cy="24.9" r="15.21"/>
	<g>
		<path fill="#1A618D" d="M25.18,0.57c-13.69,0-24.79,11.1-24.79,24.79c0,13.69,24.79,44.62,24.79,44.62s24.79-30.93,24.79-44.62
			C49.97,11.67,38.87,0.57,25.18,0.57z M25.03,43.5c-9.52,0-17.25-7.72-17.25-17.26C7.79,16.72,15.51,9,25.03,9
			c9.53,0,17.26,7.72,17.26,17.24C42.29,35.78,34.57,43.5,25.03,43.5z"/>
	</g>
	<g>
		<path fill="#010101" d="M16.56,24.54c0.32-0.23,0.62-0.39,0.9-0.48s0.58-0.14,0.89-0.14c0.63,0,1.14,0.22,1.53,0.65
			c0.39,0.43,0.58,1.07,0.58,1.91c0,0.86-0.21,1.53-0.62,2.01s-0.98,0.72-1.72,0.72c-0.84,0-1.45-0.3-1.84-0.89
			c-0.39-0.6-0.58-1.48-0.58-2.65c0-0.7,0.05-1.3,0.16-1.82c0.11-0.52,0.26-0.95,0.46-1.3c0.2-0.35,0.46-0.64,0.78-0.86
			c0.32-0.23,0.67-0.4,1.06-0.52c0.38-0.12,0.83-0.2,1.34-0.25l0.13,0.71C17.67,21.67,16.63,22.64,16.56,24.54z M16.51,25.8
			c0,0.93,0.12,1.62,0.37,2.07c0.25,0.45,0.65,0.67,1.21,0.67c0.53,0,0.92-0.17,1.18-0.5s0.38-0.85,0.38-1.56
			c0-0.64-0.12-1.1-0.35-1.4c-0.23-0.3-0.58-0.45-1.05-0.45c-0.28,0-0.54,0.05-0.8,0.14c-0.25,0.09-0.57,0.26-0.94,0.5V25.8z"/>
		<path fill="#010101" d="M22.25,25.06c0-0.43,0.01-0.82,0.04-1.15c0.03-0.34,0.07-0.67,0.13-0.99c0.06-0.33,0.15-0.61,0.26-0.84
			c0.11-0.23,0.26-0.44,0.43-0.62s0.38-0.32,0.63-0.4s0.54-0.13,0.87-0.13c0.29,0,0.54,0.04,0.77,0.11
			c0.23,0.08,0.43,0.18,0.59,0.31c0.16,0.13,0.3,0.3,0.42,0.5c0.12,0.2,0.21,0.42,0.29,0.64c0.07,0.22,0.13,0.48,0.17,0.77
			s0.07,0.58,0.09,0.86c0.02,0.28,0.02,0.6,0.02,0.95c0,0.35-0.01,0.66-0.02,0.94c-0.01,0.28-0.04,0.57-0.09,0.86
			s-0.1,0.55-0.17,0.78c-0.07,0.23-0.17,0.44-0.29,0.64s-0.26,0.37-0.42,0.5c-0.16,0.13-0.36,0.23-0.59,0.31
			c-0.23,0.08-0.49,0.11-0.77,0.11c-0.29,0-0.55-0.04-0.78-0.12c-0.23-0.08-0.43-0.18-0.59-0.31s-0.3-0.3-0.42-0.5
			c-0.12-0.2-0.22-0.42-0.29-0.64c-0.07-0.22-0.13-0.48-0.17-0.78c-0.04-0.29-0.07-0.58-0.08-0.86
			C22.26,25.71,22.25,25.4,22.25,25.06z M24.61,21.58c-0.22,0-0.41,0.03-0.57,0.1c-0.17,0.07-0.31,0.15-0.42,0.26
			c-0.11,0.11-0.21,0.25-0.29,0.43c-0.08,0.18-0.14,0.36-0.19,0.53c-0.04,0.17-0.08,0.39-0.1,0.65c-0.02,0.26-0.04,0.5-0.05,0.71
			c-0.01,0.21-0.01,0.47-0.01,0.78c0,0.39,0.01,0.73,0.02,1c0.01,0.28,0.04,0.56,0.08,0.84c0.04,0.28,0.1,0.52,0.17,0.7
			c0.08,0.19,0.17,0.35,0.29,0.5c0.12,0.15,0.27,0.26,0.44,0.33c0.18,0.07,0.39,0.1,0.63,0.1c0.22,0,0.42-0.04,0.6-0.12
			c0.18-0.08,0.32-0.18,0.43-0.29c0.11-0.11,0.21-0.27,0.29-0.48s0.14-0.4,0.18-0.56c0.04-0.16,0.07-0.39,0.09-0.67
			c0.02-0.28,0.03-0.51,0.04-0.67s0-0.39,0-0.69c0-0.39-0.01-0.73-0.02-1c-0.01-0.28-0.04-0.56-0.08-0.84
			c-0.04-0.28-0.1-0.52-0.17-0.7c-0.07-0.18-0.17-0.35-0.29-0.5c-0.12-0.15-0.27-0.26-0.44-0.33
			C25.06,21.62,24.85,21.58,24.61,21.58z"/>
		<path fill="#010101" d="M30.4,22.92c0.26,0.24,0.39,0.58,0.39,1.02s-0.13,0.78-0.39,1.02s-0.57,0.37-0.92,0.37
			c-0.36,0-0.67-0.12-0.93-0.37c-0.26-0.25-0.39-0.59-0.39-1.02c0-0.44,0.13-0.78,0.39-1.02c0.26-0.24,0.57-0.36,0.93-0.36
			S30.15,22.68,30.4,22.92z M30.06,24.64c0.16-0.17,0.24-0.4,0.24-0.7s-0.08-0.53-0.24-0.69c-0.16-0.16-0.35-0.24-0.58-0.24
			c-0.22,0-0.42,0.08-0.58,0.25c-0.17,0.17-0.25,0.39-0.25,0.68c0,0.3,0.08,0.53,0.25,0.7c0.16,0.17,0.36,0.25,0.58,0.25
			C29.7,24.89,29.9,24.81,30.06,24.64z M32.83,22.22l0.47,0.16l-2.86,6.99l-0.46-0.17L32.83,22.22z M34.52,26.78
			c0.26,0.24,0.39,0.58,0.39,1.02s-0.13,0.78-0.39,1.02c-0.26,0.24-0.57,0.37-0.92,0.37c-0.36,0-0.67-0.12-0.93-0.37
			c-0.26-0.25-0.39-0.59-0.39-1.02c0-0.44,0.13-0.78,0.39-1.02c0.26-0.24,0.57-0.36,0.93-0.36C33.95,26.41,34.26,26.54,34.52,26.78z
			 M34.17,28.5c0.16-0.17,0.24-0.4,0.24-0.7s-0.08-0.53-0.24-0.69c-0.16-0.16-0.35-0.24-0.58-0.24c-0.22,0-0.42,0.08-0.58,0.25
			c-0.17,0.17-0.25,0.39-0.25,0.68c0,0.3,0.08,0.53,0.25,0.7c0.16,0.17,0.36,0.25,0.58,0.25C33.82,28.75,34.01,28.66,34.17,28.5z"/>
	</g>
	<path fill="#1A618D" d="M25.39,0.02c-13.66,0-24.73,11.07-24.73,24.73c0,13.66,11.07,24.73,24.73,24.73
		c13.66,0,24.73-11.07,24.73-24.73C50.12,11.09,39.05,0.02,25.39,0.02z M25.39,39.11c-7.93,0-14.36-6.43-14.36-14.36
		c0-7.93,6.43-14.36,14.36-14.36c7.93,0,14.36,6.43,14.36,14.36C39.75,32.68,33.32,39.11,25.39,39.11z"/>
	<g>
		<path fill="#227ABF" d="M25,0.02c0,3.46,0,6.92,0,10.37c8,0.06,14.5,6.46,14.5,14.35c0,7.93-6.3,14.36-14.23,14.36
			c-3.06,0-5.83-0.96-8.16-2.6c-2.03,2.8-4.03,5.6-6.07,8.39c4.04,2.88,9,4.57,14.34,4.57c13.66,0,24.49-11.07,24.49-24.73
			C49.86,11.13,39,0.08,25,0.02z"/>
	</g>
</g>
</svg>
