<?xml version="1.0" encoding="utf-8"?>
<!-- Generator: Adobe Illustrator 16.0.0, SVG Export Plug-In . SVG Version: 6.00 Build 0)  -->
<!DOCTYPE svg PUBLIC "-//W3C//DTD SVG 1.1//EN" "http://www.w3.org/Graphics/SVG/1.1/DTD/svg11.dtd" [
	<!ENTITY ns_extend "http://ns.adobe.com/Extensibility/1.0/">
	<!ENTITY ns_ai "http://ns.adobe.com/AdobeIllustrator/10.0/">
	<!ENTITY ns_graphs "http://ns.adobe.com/Graphs/1.0/">
	<!ENTITY ns_vars "http://ns.adobe.com/Variables/1.0/">
	<!ENTITY ns_imrep "http://ns.adobe.com/ImageReplacement/1.0/">
	<!ENTITY ns_sfw "http://ns.adobe.com/SaveForWeb/1.0/">
	<!ENTITY ns_custom "http://ns.adobe.com/GenericCustomNamespace/1.0/">
	<!ENTITY ns_adobe_xpath "http://ns.adobe.com/XPath/1.0/">
]>
<svg version="1.1" id="Layer_1" xmlns:x="&ns_extend;" xmlns:i="&ns_ai;" xmlns:graph="&ns_graphs;"
	 xmlns="http://www.w3.org/2000/svg" xmlns:xlink="http://www.w3.org/1999/xlink" x="0px" y="0px" width="50px" height="70px"
	 viewBox="0 0 50 70" enable-background="new 0 0 50 70" xml:space="preserve">
<metadata>
	<sfw  xmlns="&ns_sfw;">
		<slices></slices>
		<sliceSourceBounds  width="50" height="70.48" bottomLeftOrigin="true" x="-0.5" y="0.01"></sliceSourceBounds>
	</sfw>
</metadata>
<g>
	<circle fill="#FFFFFF" cx="25.29" cy="25.02" r="15.33"/>
	<g>
		<path fill="#1A618D" d="M25,0.49c-13.81,0-25,11.19-25,25c0,13.8,25,45,25,45s25-31.19,25-45C50,11.68,38.81,0.49,25,0.49z
			 M24.85,43.78c-9.6,0-17.39-7.79-17.39-17.4c0-9.6,7.79-17.39,17.39-17.39c9.61,0,17.4,7.79,17.4,17.39
			C42.25,35.99,34.46,43.78,24.85,43.78z"/>
	</g>
	<g enable-background="new    ">
		<path fill="#010101" d="M19.79,19.92c-0.17,0.27-0.42,0.73-0.73,1.38c-0.31,0.65-0.65,1.42-1.01,2.31
			c-0.36,0.89-0.67,1.84-0.93,2.85c-0.26,1.01-0.39,1.88-0.39,2.62h-1.04c0.04-1.31,0.31-2.69,0.82-4.12s1.24-3.11,2.2-5.02h-4.07
			v-0.81h5.07L19.79,19.92z"/>
		<path fill="#010101" d="M26.15,26.24c0-0.78-0.16-1.37-0.49-1.78s-0.77-0.61-1.33-0.61c-0.75,0-1.38,0.19-1.89,0.57l-0.54-0.22
			v-4.95h4.72v0.77h-3.86l-0.11,3.5c0.45-0.31,1.02-0.47,1.69-0.47c0.85,0,1.53,0.29,2.04,0.87c0.51,0.58,0.76,1.35,0.76,2.33
			c0,0.93-0.29,1.65-0.88,2.15c-0.58,0.5-1.37,0.75-2.35,0.75c-0.37,0-0.8-0.05-1.29-0.14c-0.48-0.09-0.85-0.2-1.1-0.32l0.2-0.83
			c0.27,0.13,0.63,0.24,1.07,0.34s0.83,0.15,1.17,0.15c0.7,0,1.24-0.18,1.62-0.55C25.96,27.44,26.15,26.92,26.15,26.24z"/>
	</g>
	<g enable-background="new    ">
		<path fill="#010101" d="M30.79,22.81c0.26,0.25,0.39,0.59,0.39,1.03s-0.13,0.79-0.39,1.03c-0.26,0.25-0.57,0.37-0.93,0.37
			c-0.36,0-0.67-0.12-0.94-0.37c-0.27-0.25-0.4-0.59-0.4-1.03c0-0.44,0.13-0.79,0.4-1.03c0.26-0.25,0.58-0.37,0.94-0.37
			C30.22,22.45,30.53,22.57,30.79,22.81z M30.44,24.54c0.16-0.17,0.24-0.4,0.24-0.7s-0.08-0.53-0.24-0.69
			c-0.16-0.16-0.36-0.25-0.58-0.25c-0.22,0-0.42,0.08-0.59,0.25c-0.17,0.17-0.25,0.4-0.25,0.69c0,0.3,0.08,0.54,0.25,0.7
			c0.17,0.17,0.36,0.25,0.59,0.25C30.08,24.8,30.27,24.71,30.44,24.54z M33.24,22.1l0.48,0.16l-2.89,7.04l-0.46-0.17L33.24,22.1z
			 M34.94,26.7c0.26,0.25,0.39,0.59,0.39,1.03s-0.13,0.79-0.39,1.03c-0.26,0.25-0.57,0.37-0.93,0.37c-0.36,0-0.67-0.12-0.94-0.37
			s-0.4-0.59-0.4-1.03c0-0.44,0.13-0.79,0.4-1.03s0.58-0.37,0.94-0.37S34.67,26.46,34.94,26.7z M34.58,28.43
			c0.16-0.17,0.24-0.4,0.24-0.7s-0.08-0.53-0.24-0.69c-0.16-0.16-0.36-0.25-0.58-0.25c-0.22,0-0.42,0.08-0.59,0.25
			c-0.17,0.17-0.25,0.4-0.25,0.69c0,0.3,0.08,0.54,0.25,0.7c0.17,0.17,0.36,0.25,0.59,0.25C34.23,28.68,34.42,28.6,34.58,28.43z"/>
	</g>
	<g>
		<path fill="#1A618D" d="M24.91,0.54c-13.46,0-24.23,10.77-24.23,24.23c0,14.14,10.77,24.91,24.23,24.91
			c14.14,0,24.91-10.77,24.91-24.91C49.82,11.31,39.04,0.54,24.91,0.54L24.91,0.54z M24.91,39.58c-8.08,0-14.81-6.06-14.81-14.81
			c0-8.08,6.73-14.81,14.81-14.81s14.81,6.73,14.81,14.81C39.72,33.52,32.99,39.58,24.91,39.58L24.91,39.58z"/>
	</g>
	<path fill="#227ABF" d="M24.65,10.11c8.75,0,14.81,6.73,14.81,14.81S33.4,39.73,24.65,39.73c-8.08,0-14.14-6.73-14.81-14.81
		c-9.42,0-9.42,0-9.42,0c0,13.46,10.77,24.23,24.23,24.23c14.14,0,24.91-10.77,24.91-24.23c0-14.14-10.77-24.91-24.91-24.91V10.11z"
		/>
</g>
</svg>
