<?xml version="1.0" encoding="utf-8"?>
<!-- Generator: Adobe Illustrator 16.0.0, SVG Export Plug-In . SVG Version: 6.00 Build 0)  -->
<!DOCTYPE svg PUBLIC "-//W3C//DTD SVG 1.1//EN" "http://www.w3.org/Graphics/SVG/1.1/DTD/svg11.dtd" [
	<!ENTITY ns_extend "http://ns.adobe.com/Extensibility/1.0/">
	<!ENTITY ns_ai "http://ns.adobe.com/AdobeIllustrator/10.0/">
	<!ENTITY ns_graphs "http://ns.adobe.com/Graphs/1.0/">
	<!ENTITY ns_vars "http://ns.adobe.com/Variables/1.0/">
	<!ENTITY ns_imrep "http://ns.adobe.com/ImageReplacement/1.0/">
	<!ENTITY ns_sfw "http://ns.adobe.com/SaveForWeb/1.0/">
	<!ENTITY ns_custom "http://ns.adobe.com/GenericCustomNamespace/1.0/">
	<!ENTITY ns_adobe_xpath "http://ns.adobe.com/XPath/1.0/">
]>
<svg version="1.1" id="Layer_1" xmlns:x="&ns_extend;" xmlns:i="&ns_ai;" xmlns:graph="&ns_graphs;"
	 xmlns="http://www.w3.org/2000/svg" xmlns:xlink="http://www.w3.org/1999/xlink" x="0px" y="0px" width="50px" height="70px"
	 viewBox="0 0 50 70" enable-background="new 0 0 50 70" xml:space="preserve">
<metadata>
	<sfw  xmlns="&ns_sfw;">
		<slices></slices>
		<sliceSourceBounds  width="50" height="70.47" bottomLeftOrigin="true" x="0" y="-70.48"></sliceSourceBounds>
	</sfw>
</metadata>
<g>
	<circle fill="#FFFFFF" cx="25.29" cy="25.02" r="15.33"/>
	<g>
		<path fill="#1A618D" d="M25,0.49c-13.81,0-25,11.19-25,25c0,13.8,25,45,25,45s25-31.19,25-45C50,11.68,38.81,0.49,25,0.49z
			 M24.85,43.78c-9.6,0-17.39-7.79-17.39-17.4c0-9.6,7.79-17.39,17.39-17.39c9.61,0,17.4,7.79,17.4,17.39
			C42.25,35.99,34.46,43.78,24.85,43.78z"/>
	</g>
	<text transform="matrix(1 0 0 1 13.8271 29.0825)"><tspan x="0" y="0" fill="#010101" font-family="'Anaheim-Regular'" font-size="15.6691">75</tspan><tspan x="14.34" y="0" fill="#010101" font-family="'Anaheim-Regular'" font-size="10.4461">%</tspan></text>
	<g>
		<path fill="#1A618D" d="M24.91,0.54c-13.46,0-24.23,10.77-24.23,24.23c0,14.14,10.77,24.91,24.23,24.91
			c14.14,0,24.91-10.77,24.91-24.91C49.82,11.31,39.04,0.54,24.91,0.54L24.91,0.54z M24.91,39.58c-8.08,0-14.81-6.06-14.81-14.81
			c0-8.08,6.73-14.81,14.81-14.81s14.81,6.73,14.81,14.81C39.72,33.52,32.99,39.58,24.91,39.58L24.91,39.58z"/>
	</g>
	<path fill="#227ABF" d="M24.65,10.11c8.75,0,14.81,6.73,14.81,14.81S33.4,39.73,24.65,39.73c-8.08,0-14.14-6.73-14.81-14.81
		c-9.42,0-9.42,0-9.42,0c0,13.46,10.77,24.23,24.23,24.23c14.14,0,24.91-10.77,24.91-24.23c0-14.14-10.77-24.91-24.91-24.91V10.11z"
		/>
</g>
</svg>
