<?xml version="1.0" encoding="utf-8"?>
<!-- Generator: Adobe Illustrator 16.0.0, SVG Export Plug-In . SVG Version: 6.00 Build 0)  -->
<!DOCTYPE svg PUBLIC "-//W3C//DTD SVG 1.1//EN" "http://www.w3.org/Graphics/SVG/1.1/DTD/svg11.dtd" [
	<!ENTITY ns_extend "http://ns.adobe.com/Extensibility/1.0/">
	<!ENTITY ns_ai "http://ns.adobe.com/AdobeIllustrator/10.0/">
	<!ENTITY ns_graphs "http://ns.adobe.com/Graphs/1.0/">
	<!ENTITY ns_vars "http://ns.adobe.com/Variables/1.0/">
	<!ENTITY ns_imrep "http://ns.adobe.com/ImageReplacement/1.0/">
	<!ENTITY ns_sfw "http://ns.adobe.com/SaveForWeb/1.0/">
	<!ENTITY ns_custom "http://ns.adobe.com/GenericCustomNamespace/1.0/">
	<!ENTITY ns_adobe_xpath "http://ns.adobe.com/XPath/1.0/">
]>
<svg version="1.1" id="Layer_1" xmlns:x="&ns_extend;" xmlns:i="&ns_ai;" xmlns:graph="&ns_graphs;"
	 xmlns="http://www.w3.org/2000/svg" xmlns:xlink="http://www.w3.org/1999/xlink" x="0px" y="0px" width="50px" height="70px"
	 viewBox="0 0 50 70" enable-background="new 0 0 50 70" xml:space="preserve">
<metadata>
	<sfw  xmlns="&ns_sfw;">
		<slices></slices>
		<sliceSourceBounds  width="50" height="70.62" bottomLeftOrigin="true" x="-0.56" y="-0.01"></sliceSourceBounds>
	</sfw>
</metadata>
<g>
	<circle fill="#FFFFFF" cx="25.46" cy="24.64" r="15.47"/>
	<g>
		<path fill="#1A618D" d="M24.83-0.11c-13.74,0-24.89,11.29-24.89,25.22c0,13.93,24.89,45.4,24.89,45.4s24.89-31.47,24.89-45.4
			C49.71,11.18,38.57-0.11,24.83-0.11z M24.68,43.57c-9.56,0-17.31-7.86-17.31-17.56c0-9.69,7.75-17.55,17.31-17.55
			C34.25,8.47,42,16.32,42,26.01C42,35.71,34.25,43.57,24.68,43.57z"/>
	</g>
	<g enable-background="new    ">
		<path fill="#010101" d="M18.52,26.4c0-0.79-0.17-1.39-0.5-1.79C17.69,24.2,17.24,24,16.67,24c-0.76,0-1.39,0.19-1.91,0.58
			l-0.55-0.22v-4.99h4.76v0.77h-3.89l-0.12,3.54c0.46-0.31,1.03-0.47,1.71-0.47c0.85,0,1.54,0.29,2.05,0.87
			c0.51,0.58,0.77,1.37,0.77,2.35c0,0.94-0.29,1.67-0.88,2.17c-0.59,0.5-1.38,0.76-2.37,0.76c-0.38,0-0.81-0.05-1.3-0.14
			c-0.49-0.09-0.86-0.2-1.11-0.32l0.2-0.84c0.27,0.13,0.63,0.24,1.08,0.34s0.84,0.15,1.18,0.15c0.71,0,1.26-0.18,1.64-0.55
			S18.52,27.08,18.52,26.4z"/>
		<path fill="#010101" d="M21.57,24.28c0-0.53,0.02-1,0.05-1.41c0.03-0.41,0.08-0.81,0.16-1.21c0.07-0.4,0.18-0.74,0.32-1.02
			c0.14-0.28,0.31-0.54,0.52-0.76c0.21-0.22,0.47-0.39,0.78-0.49c0.31-0.11,0.66-0.16,1.06-0.16c0.35,0,0.67,0.05,0.95,0.14
			s0.52,0.22,0.72,0.38c0.2,0.16,0.37,0.36,0.51,0.61s0.26,0.51,0.35,0.78s0.16,0.59,0.21,0.95c0.05,0.36,0.09,0.71,0.11,1.05
			c0.02,0.34,0.03,0.73,0.03,1.15c0,0.42-0.01,0.81-0.03,1.15s-0.05,0.7-0.11,1.05c-0.05,0.36-0.12,0.67-0.21,0.95
			s-0.21,0.54-0.35,0.78s-0.32,0.45-0.52,0.61c-0.2,0.16-0.44,0.29-0.72,0.38c-0.28,0.09-0.59,0.14-0.94,0.14
			c-0.35,0-0.67-0.05-0.95-0.14c-0.28-0.1-0.52-0.22-0.72-0.38c-0.2-0.16-0.37-0.36-0.52-0.61c-0.15-0.25-0.27-0.51-0.36-0.78
			c-0.09-0.27-0.16-0.59-0.21-0.95c-0.05-0.36-0.09-0.71-0.1-1.05S21.57,24.7,21.57,24.28z M24.46,20.04c-0.26,0-0.5,0.04-0.7,0.12
			c-0.2,0.08-0.37,0.19-0.51,0.32c-0.14,0.13-0.26,0.3-0.36,0.53c-0.1,0.22-0.17,0.44-0.23,0.65c-0.05,0.21-0.1,0.48-0.13,0.8
			s-0.05,0.61-0.06,0.87c-0.01,0.26-0.01,0.58-0.01,0.95c0,0.48,0.01,0.89,0.02,1.22c0.02,0.34,0.05,0.68,0.1,1.02
			c0.05,0.34,0.12,0.63,0.21,0.86c0.09,0.23,0.21,0.43,0.35,0.61s0.32,0.32,0.54,0.4c0.22,0.08,0.47,0.13,0.76,0.13
			c0.27,0,0.52-0.05,0.73-0.15c0.21-0.1,0.39-0.21,0.53-0.35c0.14-0.14,0.25-0.33,0.35-0.59c0.1-0.26,0.17-0.49,0.22-0.68
			c0.05-0.2,0.08-0.47,0.11-0.82s0.04-0.62,0.04-0.81c0-0.2,0-0.48,0-0.84c0-0.48-0.01-0.89-0.02-1.22
			c-0.02-0.34-0.05-0.68-0.1-1.02s-0.12-0.63-0.21-0.85c-0.09-0.22-0.21-0.43-0.35-0.61s-0.32-0.32-0.54-0.4
			S24.75,20.04,24.46,20.04z"/>
	</g>
	<g enable-background="new    ">
		<path fill="#010101" d="M31.01,22.94c0.26,0.25,0.39,0.59,0.39,1.04c0,0.45-0.13,0.79-0.4,1.04c-0.26,0.25-0.58,0.37-0.94,0.37
			c-0.36,0-0.68-0.12-0.95-0.38c-0.27-0.25-0.4-0.6-0.4-1.04c0-0.45,0.13-0.79,0.4-1.04s0.58-0.37,0.95-0.37
			C30.43,22.57,30.74,22.7,31.01,22.94z M30.65,24.69c0.17-0.17,0.25-0.41,0.25-0.71s-0.08-0.54-0.24-0.7s-0.36-0.25-0.59-0.25
			c-0.23,0-0.42,0.08-0.59,0.25c-0.17,0.17-0.25,0.4-0.25,0.7c0,0.3,0.08,0.54,0.25,0.71c0.17,0.17,0.37,0.25,0.6,0.25
			C30.29,24.95,30.49,24.86,30.65,24.69z M33.48,22.23l0.48,0.16l-2.91,7.11l-0.46-0.17L33.48,22.23z M35.19,26.87
			c0.26,0.25,0.4,0.59,0.4,1.04c0,0.45-0.13,0.79-0.4,1.04c-0.27,0.25-0.58,0.37-0.94,0.37c-0.36,0-0.68-0.13-0.95-0.38
			s-0.4-0.6-0.4-1.04c0-0.45,0.13-0.79,0.4-1.04s0.58-0.37,0.95-0.37S34.93,26.62,35.19,26.87z M34.84,28.61
			c0.17-0.17,0.25-0.41,0.25-0.71c0-0.3-0.08-0.54-0.24-0.7c-0.16-0.17-0.36-0.25-0.59-0.25c-0.23,0-0.42,0.08-0.59,0.25
			s-0.25,0.4-0.25,0.69c0,0.31,0.08,0.54,0.25,0.71c0.17,0.17,0.36,0.25,0.59,0.25C34.48,28.87,34.67,28.78,34.84,28.61z"/>
	</g>
	<g>
		<path fill="#1A618D" d="M24.81,0.47c-13.58,0-24.45,10.87-24.45,24.45c0,14.26,10.87,25.13,24.45,25.13
			c14.26,0,25.13-10.87,25.13-25.13C49.94,11.33,39.07,0.47,24.81,0.47L24.81,0.47z M24.81,39.86c-8.15,0-14.94-6.11-14.94-14.94
			c0-8.15,6.79-14.94,14.94-14.94s14.94,6.79,14.94,14.94C39.75,33.75,32.96,39.86,24.81,39.86L24.81,39.86z"/>
	</g>
	<path fill="#227ABF" d="M24,39.79c0,0,0.5,0.01,0.6,0.01c8.24,0,15.31-6.15,15.31-15.04C39.91,16.55,33,10.4,25,9.71
		c0-9.57,0-9.57,0-9.57c14,0,24.67,10.94,24.67,24.62c0,14.36-11.31,25.3-25.05,25.3c-0.1,0-0.63,0-0.63,0L24,39.79L24,39.79z"/>
</g>
</svg>
