<?xml version="1.0" encoding="utf-8"?>
<!-- Generator: Adobe Illustrator 16.0.0, SVG Export Plug-In . SVG Version: 6.00 Build 0)  -->
<!DOCTYPE svg PUBLIC "-//W3C//DTD SVG 1.1//EN" "http://www.w3.org/Graphics/SVG/1.1/DTD/svg11.dtd" [
	<!ENTITY ns_extend "http://ns.adobe.com/Extensibility/1.0/">
	<!ENTITY ns_ai "http://ns.adobe.com/AdobeIllustrator/10.0/">
	<!ENTITY ns_graphs "http://ns.adobe.com/Graphs/1.0/">
	<!ENTITY ns_vars "http://ns.adobe.com/Variables/1.0/">
	<!ENTITY ns_imrep "http://ns.adobe.com/ImageReplacement/1.0/">
	<!ENTITY ns_sfw "http://ns.adobe.com/SaveForWeb/1.0/">
	<!ENTITY ns_custom "http://ns.adobe.com/GenericCustomNamespace/1.0/">
	<!ENTITY ns_adobe_xpath "http://ns.adobe.com/XPath/1.0/">
]>
<svg version="1.1" id="Layer_1" xmlns:x="&ns_extend;" xmlns:i="&ns_ai;" xmlns:graph="&ns_graphs;"
	 xmlns="http://www.w3.org/2000/svg" xmlns:xlink="http://www.w3.org/1999/xlink" x="0px" y="0px" width="50px" height="70px"
	 viewBox="0 0 50 70" enable-background="new 0 0 50 70" xml:space="preserve">
<metadata>
	<sfw  xmlns="&ns_sfw;">
		<slices></slices>
		<sliceSourceBounds  x="0.39" y="-69.98" height="69.97" width="49.58" bottomLeftOrigin="true"></sliceSourceBounds>
	</sfw>
</metadata>
<g>
	<circle fill="#FFFFFF" cx="25.47" cy="24.9" r="15.21"/>
	<g>
		<path fill="#1A618D" d="M25.18,0.57c-13.69,0-24.79,11.1-24.79,24.79c0,13.69,24.79,44.62,24.79,44.62s24.79-30.93,24.79-44.62
			C49.97,11.67,38.87,0.57,25.18,0.57z M25.03,43.5c-9.52,0-17.25-7.72-17.25-17.26C7.79,16.72,15.51,9,25.03,9
			c9.53,0,17.26,7.72,17.26,17.24C42.29,35.78,34.57,43.5,25.03,43.5z"/>
	</g>
	<g>
		<path fill="#010101" d="M15.76,28.51h1.21v0.63h-3.44v-0.63h1.42v-6.75l-1.43,0.67l-0.24-0.59l-0.01-0.01l1.78-0.82h0.71V28.51z"
			/>
		<path fill="#010101" d="M18.42,25.06c0-0.43,0.01-0.82,0.04-1.15c0.03-0.34,0.07-0.67,0.13-0.99c0.06-0.33,0.15-0.61,0.26-0.84
			c0.11-0.23,0.26-0.44,0.43-0.62s0.38-0.32,0.63-0.4s0.54-0.13,0.87-0.13c0.29,0,0.54,0.04,0.77,0.11
			c0.23,0.08,0.43,0.18,0.59,0.31c0.16,0.13,0.3,0.3,0.42,0.5c0.12,0.2,0.21,0.42,0.29,0.64c0.07,0.22,0.13,0.48,0.17,0.77
			s0.07,0.58,0.09,0.86c0.02,0.28,0.02,0.6,0.02,0.95c0,0.35-0.01,0.66-0.02,0.94c-0.01,0.28-0.04,0.57-0.09,0.86
			s-0.1,0.55-0.17,0.78c-0.07,0.23-0.17,0.44-0.29,0.64s-0.26,0.37-0.42,0.5c-0.16,0.13-0.36,0.23-0.59,0.31
			c-0.23,0.08-0.49,0.11-0.77,0.11c-0.29,0-0.55-0.04-0.78-0.12c-0.23-0.08-0.43-0.18-0.59-0.31s-0.3-0.3-0.42-0.5
			c-0.12-0.2-0.22-0.42-0.29-0.64c-0.07-0.22-0.13-0.48-0.17-0.78c-0.04-0.29-0.07-0.58-0.08-0.86
			C18.43,25.71,18.42,25.4,18.42,25.06z M20.79,21.58c-0.22,0-0.41,0.03-0.57,0.1c-0.17,0.07-0.31,0.15-0.42,0.26
			c-0.11,0.11-0.21,0.25-0.29,0.43c-0.08,0.18-0.14,0.36-0.19,0.53c-0.04,0.17-0.08,0.39-0.1,0.65c-0.02,0.26-0.04,0.5-0.05,0.71
			c-0.01,0.21-0.01,0.47-0.01,0.78c0,0.39,0.01,0.73,0.02,1c0.01,0.28,0.04,0.56,0.08,0.84c0.04,0.28,0.1,0.52,0.17,0.7
			c0.08,0.19,0.17,0.35,0.29,0.5c0.12,0.15,0.27,0.26,0.44,0.33c0.18,0.07,0.39,0.1,0.63,0.1c0.22,0,0.42-0.04,0.6-0.12
			c0.18-0.08,0.32-0.18,0.43-0.29c0.11-0.11,0.21-0.27,0.29-0.48s0.14-0.4,0.18-0.56c0.04-0.16,0.07-0.39,0.09-0.67
			c0.02-0.28,0.03-0.51,0.04-0.67s0-0.39,0-0.69c0-0.39-0.01-0.73-0.02-1c-0.01-0.28-0.04-0.56-0.08-0.84
			c-0.04-0.28-0.1-0.52-0.17-0.7c-0.07-0.18-0.17-0.35-0.29-0.5c-0.12-0.15-0.27-0.26-0.44-0.33
			C21.23,21.62,21.02,21.58,20.79,21.58z"/>
		<path fill="#010101" d="M24.82,25.06c0-0.43,0.01-0.82,0.04-1.15c0.03-0.34,0.07-0.67,0.13-0.99c0.06-0.33,0.15-0.61,0.26-0.84
			c0.11-0.23,0.26-0.44,0.43-0.62s0.38-0.32,0.63-0.4s0.54-0.13,0.87-0.13c0.29,0,0.54,0.04,0.77,0.11
			c0.23,0.08,0.43,0.18,0.59,0.31c0.16,0.13,0.3,0.3,0.42,0.5c0.12,0.2,0.21,0.42,0.29,0.64c0.07,0.22,0.13,0.48,0.17,0.77
			s0.07,0.58,0.09,0.86c0.02,0.28,0.02,0.6,0.02,0.95c0,0.35-0.01,0.66-0.02,0.94c-0.01,0.28-0.04,0.57-0.09,0.86
			s-0.1,0.55-0.17,0.78c-0.07,0.23-0.17,0.44-0.29,0.64s-0.26,0.37-0.42,0.5c-0.16,0.13-0.36,0.23-0.59,0.31
			c-0.23,0.08-0.49,0.11-0.77,0.11c-0.29,0-0.55-0.04-0.78-0.12c-0.23-0.08-0.43-0.18-0.59-0.31s-0.3-0.3-0.42-0.5
			c-0.12-0.2-0.22-0.42-0.29-0.64c-0.07-0.22-0.13-0.48-0.17-0.78c-0.04-0.29-0.07-0.58-0.08-0.86
			C24.83,25.71,24.82,25.4,24.82,25.06z M27.18,21.58c-0.22,0-0.41,0.03-0.57,0.1c-0.17,0.07-0.31,0.15-0.42,0.26
			c-0.11,0.11-0.21,0.25-0.29,0.43c-0.08,0.18-0.14,0.36-0.19,0.53c-0.04,0.17-0.08,0.39-0.1,0.65c-0.02,0.26-0.04,0.5-0.05,0.71
			c-0.01,0.21-0.01,0.47-0.01,0.78c0,0.39,0.01,0.73,0.02,1c0.01,0.28,0.04,0.56,0.08,0.84c0.04,0.28,0.1,0.52,0.17,0.7
			c0.08,0.19,0.17,0.35,0.29,0.5c0.12,0.15,0.27,0.26,0.44,0.33c0.18,0.07,0.39,0.1,0.63,0.1c0.22,0,0.42-0.04,0.6-0.12
			c0.18-0.08,0.32-0.18,0.43-0.29c0.11-0.11,0.21-0.27,0.29-0.48s0.14-0.4,0.18-0.56c0.04-0.16,0.07-0.39,0.09-0.67
			c0.02-0.28,0.03-0.51,0.04-0.67s0-0.39,0-0.69c0-0.39-0.01-0.73-0.02-1c-0.01-0.28-0.04-0.56-0.08-0.84
			c-0.04-0.28-0.1-0.52-0.17-0.7c-0.07-0.18-0.17-0.35-0.29-0.5c-0.12-0.15-0.27-0.26-0.44-0.33
			C27.63,21.62,27.42,21.58,27.18,21.58z"/>
		<path fill="#010101" d="M32.97,22.92c0.26,0.24,0.39,0.58,0.39,1.02s-0.13,0.78-0.39,1.02s-0.57,0.37-0.92,0.37
			c-0.36,0-0.67-0.12-0.93-0.37c-0.26-0.25-0.39-0.59-0.39-1.02c0-0.44,0.13-0.78,0.39-1.02c0.26-0.24,0.57-0.36,0.93-0.36
			S32.72,22.68,32.97,22.92z M32.63,24.64c0.16-0.17,0.24-0.4,0.24-0.7s-0.08-0.53-0.24-0.69c-0.16-0.16-0.35-0.24-0.58-0.24
			c-0.22,0-0.42,0.08-0.58,0.25c-0.17,0.17-0.25,0.39-0.25,0.68c0,0.3,0.08,0.53,0.25,0.7c0.16,0.17,0.36,0.25,0.58,0.25
			C32.27,24.89,32.47,24.81,32.63,24.64z M35.41,22.22l0.47,0.16l-2.86,6.99l-0.46-0.17L35.41,22.22z M37.09,26.78
			c0.26,0.24,0.39,0.58,0.39,1.02s-0.13,0.78-0.39,1.02c-0.26,0.24-0.57,0.37-0.92,0.37c-0.36,0-0.67-0.12-0.93-0.37
			c-0.26-0.25-0.39-0.59-0.39-1.02c0-0.44,0.13-0.78,0.39-1.02c0.26-0.24,0.57-0.36,0.93-0.36C36.52,26.41,36.83,26.54,37.09,26.78z
			 M36.74,28.5c0.16-0.17,0.24-0.4,0.24-0.7s-0.08-0.53-0.24-0.69c-0.16-0.16-0.35-0.24-0.58-0.24c-0.22,0-0.42,0.08-0.58,0.25
			c-0.17,0.17-0.25,0.39-0.25,0.68c0,0.3,0.08,0.53,0.25,0.7c0.16,0.17,0.36,0.25,0.58,0.25C36.39,28.75,36.58,28.66,36.74,28.5z"/>
	</g>
	<g>
		<path fill="#1A618D" d="M24.75,0.57C11.4,0.57,0.72,11.25,0.72,24.6c0,14.02,10.68,24.7,24.03,24.7c14.02,0,24.7-10.68,24.7-24.7
			C49.45,11.25,38.77,0.57,24.75,0.57L24.75,0.57z M24.75,39.29c-8.01,0-14.69-6.01-14.69-14.69c0-8.01,6.68-14.69,14.69-14.69
			c8.01,0,14.69,6.67,14.69,14.69C39.44,33.28,32.76,39.29,24.75,39.29L24.75,39.29z"/>
	</g>
	<path fill="#227ABF" d="M25.18,0.02c-13.66,0-24.73,11.07-24.73,24.73c0,13.66,11.07,24.73,24.73,24.73
		c13.66,0,24.73-11.07,24.73-24.73C49.91,11.09,38.84,0.02,25.18,0.02z M25.18,39.1c-7.93,0-14.36-6.43-14.36-14.36
		c0-7.93,6.43-14.36,14.36-14.36c7.93,0,14.36,6.43,14.36,14.36C39.54,32.68,33.11,39.1,25.18,39.1z"/>
</g>
</svg>
