<?xml version="1.0" encoding="utf-8"?>
<!-- Generator: Adobe Illustrator 16.0.0, SVG Export Plug-In . SVG Version: 6.00 Build 0)  -->
<!DOCTYPE svg PUBLIC "-//W3C//DTD SVG 1.1//EN" "http://www.w3.org/Graphics/SVG/1.1/DTD/svg11.dtd" [
	<!ENTITY ns_extend "http://ns.adobe.com/Extensibility/1.0/">
	<!ENTITY ns_ai "http://ns.adobe.com/AdobeIllustrator/10.0/">
	<!ENTITY ns_graphs "http://ns.adobe.com/Graphs/1.0/">
	<!ENTITY ns_vars "http://ns.adobe.com/Variables/1.0/">
	<!ENTITY ns_imrep "http://ns.adobe.com/ImageReplacement/1.0/">
	<!ENTITY ns_sfw "http://ns.adobe.com/SaveForWeb/1.0/">
	<!ENTITY ns_custom "http://ns.adobe.com/GenericCustomNamespace/1.0/">
	<!ENTITY ns_adobe_xpath "http://ns.adobe.com/XPath/1.0/">
]>
<svg version="1.1" id="Layer_1" xmlns:x="&ns_extend;" xmlns:i="&ns_ai;" xmlns:graph="&ns_graphs;"
	 xmlns="http://www.w3.org/2000/svg" xmlns:xlink="http://www.w3.org/1999/xlink" x="0px" y="0px" width="50px" height="70px"
	 viewBox="0 0 50 70" enable-background="new 0 0 50 70" xml:space="preserve">
<metadata>
	<sfw  xmlns="&ns_sfw;">
		<slices></slices>
		<sliceSourceBounds  x="0.39" y="-69.98" height="69.97" width="49.73" bottomLeftOrigin="true"></sliceSourceBounds>
	</sfw>
</metadata>
<g>
	<circle fill="#FFFFFF" cx="25.47" cy="24.9" r="15.21"/>
	<g>
		<path fill="#1A618D" d="M25.18,0.57c-13.69,0-24.79,11.1-24.79,24.79c0,13.69,24.79,44.62,24.79,44.62s24.79-30.93,24.79-44.62
			C49.97,11.67,38.87,0.57,25.18,0.57z M25.03,43.5c-9.52,0-17.25-7.72-17.25-17.26C7.79,16.72,15.51,9,25.03,9
			c9.53,0,17.26,7.72,17.26,17.24C42.29,35.78,34.57,43.5,25.03,43.5z"/>
	</g>
	<path fill="#1A618D" d="M25.39,0.02c-13.66,0-24.73,11.07-24.73,24.73c0,13.66,11.07,24.73,24.73,24.73
		c13.66,0,24.73-11.07,24.73-24.73C50.12,11.09,39.05,0.02,25.39,0.02z M25.39,39.11c-7.93,0-14.36-6.43-14.36-14.36
		c0-7.93,6.43-14.36,14.36-14.36c7.93,0,14.36,6.43,14.36,14.36C39.75,32.68,33.32,39.11,25.39,39.11z"/>
</g>
</svg>
