<?xml version="1.0" encoding="utf-8"?>
<!-- Generator: Adobe Illustrator 16.0.0, SVG Export Plug-In . SVG Version: 6.00 Build 0)  -->
<!DOCTYPE svg PUBLIC "-//W3C//DTD SVG 1.1//EN" "http://www.w3.org/Graphics/SVG/1.1/DTD/svg11.dtd" [
	<!ENTITY ns_extend "http://ns.adobe.com/Extensibility/1.0/">
	<!ENTITY ns_ai "http://ns.adobe.com/AdobeIllustrator/10.0/">
	<!ENTITY ns_graphs "http://ns.adobe.com/Graphs/1.0/">
	<!ENTITY ns_vars "http://ns.adobe.com/Variables/1.0/">
	<!ENTITY ns_imrep "http://ns.adobe.com/ImageReplacement/1.0/">
	<!ENTITY ns_sfw "http://ns.adobe.com/SaveForWeb/1.0/">
	<!ENTITY ns_custom "http://ns.adobe.com/GenericCustomNamespace/1.0/">
	<!ENTITY ns_adobe_xpath "http://ns.adobe.com/XPath/1.0/">
]>
<svg version="1.1" id="Layer_1" xmlns:x="&ns_extend;" xmlns:i="&ns_ai;" xmlns:graph="&ns_graphs;"
	 xmlns="http://www.w3.org/2000/svg" xmlns:xlink="http://www.w3.org/1999/xlink" x="0px" y="0px" width="50px" height="70px"
	 viewBox="0 0 50 70" enable-background="new 0 0 50 70" xml:space="preserve">
<metadata>
	<sfw  xmlns="&ns_sfw;">
		<slices></slices>
		<sliceSourceBounds  x="0.39" y="-69.98" height="69.97" width="49.73" bottomLeftOrigin="true"></sliceSourceBounds>
	</sfw>
</metadata>
<g>
	<circle fill="#FFFFFF" cx="25.47" cy="24.9" r="15.21"/>
	<g>
		<path fill="#1A618D" d="M25.18,0.57c-13.69,0-24.79,11.1-24.79,24.79c0,13.69,24.79,44.62,24.79,44.62s24.79-30.93,24.79-44.62
			C49.97,11.67,38.87,0.57,25.18,0.57z M25.03,43.5c-9.52,0-17.25-7.72-17.25-17.26C7.79,16.72,15.51,9,25.03,9
			c9.53,0,17.26,7.72,17.26,17.24C42.29,35.78,34.57,43.5,25.03,43.5z"/>
	</g>
	<g>
		<path fill="#010101" d="M16,22.86c0-0.44,0.11-0.81,0.33-1.11c0.22-0.3,0.5-0.51,0.84-0.64c0.34-0.13,0.72-0.19,1.15-0.19
			c0.42,0,0.8,0.07,1.15,0.21s0.63,0.36,0.85,0.65c0.22,0.3,0.33,0.65,0.33,1.05c0,0.43-0.14,0.84-0.42,1.23
			c-0.28,0.39-0.65,0.68-1.11,0.88c0.47,0.25,0.85,0.55,1.12,0.91c0.27,0.36,0.41,0.81,0.41,1.36c0,0.33-0.07,0.62-0.21,0.88
			c-0.14,0.26-0.32,0.47-0.55,0.63c-0.23,0.16-0.49,0.28-0.77,0.36c-0.29,0.08-0.58,0.12-0.9,0.12c-0.7,0-1.28-0.17-1.74-0.52
			c-0.46-0.34-0.69-0.83-0.69-1.47c0-0.47,0.14-0.92,0.42-1.35c0.28-0.43,0.68-0.76,1.2-1c-0.43-0.22-0.78-0.49-1.03-0.81
			C16.12,23.75,16,23.34,16,22.86z M18.22,28.53c0.47,0,0.86-0.11,1.16-0.34c0.3-0.23,0.46-0.59,0.46-1.08c0-0.2-0.03-0.39-0.1-0.57
			c-0.07-0.18-0.16-0.33-0.26-0.46s-0.24-0.25-0.4-0.37c-0.17-0.12-0.32-0.22-0.46-0.29s-0.32-0.16-0.51-0.24
			c-0.99,0.5-1.49,1.15-1.49,1.95c0,0.48,0.15,0.83,0.44,1.06S17.73,28.53,18.22,28.53z M18.43,24.61c0.41-0.14,0.75-0.38,1.01-0.7
			c0.26-0.32,0.39-0.66,0.39-1.02c0-0.4-0.12-0.72-0.38-0.96c-0.25-0.24-0.63-0.36-1.13-0.36c-0.21,0-0.4,0.02-0.58,0.06
			c-0.17,0.04-0.34,0.11-0.48,0.21s-0.26,0.23-0.34,0.4s-0.12,0.38-0.12,0.63c0,0.23,0.04,0.43,0.12,0.61
			c0.08,0.18,0.21,0.34,0.38,0.47c0.17,0.14,0.33,0.25,0.5,0.34C17.96,24.4,18.17,24.5,18.43,24.61z"/>
		<path fill="#010101" d="M22.36,25.06c0-0.43,0.01-0.82,0.04-1.15c0.03-0.34,0.07-0.67,0.13-0.99c0.06-0.33,0.15-0.61,0.26-0.84
			c0.11-0.23,0.26-0.44,0.43-0.62s0.38-0.32,0.63-0.4s0.54-0.13,0.87-0.13c0.29,0,0.54,0.04,0.77,0.11
			c0.23,0.08,0.43,0.18,0.59,0.31c0.16,0.13,0.3,0.3,0.42,0.5c0.12,0.2,0.21,0.42,0.29,0.64c0.07,0.22,0.13,0.48,0.17,0.77
			s0.07,0.58,0.09,0.86c0.02,0.28,0.02,0.6,0.02,0.95c0,0.35-0.01,0.66-0.02,0.94c-0.01,0.28-0.04,0.57-0.09,0.86
			s-0.1,0.55-0.17,0.78c-0.07,0.23-0.17,0.44-0.29,0.64s-0.26,0.37-0.42,0.5c-0.16,0.13-0.36,0.23-0.59,0.31
			c-0.23,0.08-0.49,0.11-0.77,0.11c-0.29,0-0.55-0.04-0.78-0.12c-0.23-0.08-0.43-0.18-0.59-0.31s-0.3-0.3-0.42-0.5
			c-0.12-0.2-0.22-0.42-0.29-0.64c-0.07-0.22-0.13-0.48-0.17-0.78c-0.04-0.29-0.07-0.58-0.08-0.86
			C22.37,25.71,22.36,25.4,22.36,25.06z M24.73,21.58c-0.22,0-0.41,0.03-0.57,0.1c-0.17,0.07-0.31,0.15-0.42,0.26
			c-0.11,0.11-0.21,0.25-0.29,0.43c-0.08,0.18-0.14,0.36-0.19,0.53c-0.04,0.17-0.08,0.39-0.1,0.65c-0.02,0.26-0.04,0.5-0.05,0.71
			c-0.01,0.21-0.01,0.47-0.01,0.78c0,0.39,0.01,0.73,0.02,1c0.01,0.28,0.04,0.56,0.08,0.84c0.04,0.28,0.1,0.52,0.17,0.7
			c0.08,0.19,0.17,0.35,0.29,0.5c0.12,0.15,0.27,0.26,0.44,0.33c0.18,0.07,0.39,0.1,0.63,0.1c0.22,0,0.42-0.04,0.6-0.12
			c0.18-0.08,0.32-0.18,0.43-0.29c0.11-0.11,0.21-0.27,0.29-0.48s0.14-0.4,0.18-0.56c0.04-0.16,0.07-0.39,0.09-0.67
			c0.02-0.28,0.03-0.51,0.04-0.67s0-0.39,0-0.69c0-0.39-0.01-0.73-0.02-1c-0.01-0.28-0.04-0.56-0.08-0.84
			c-0.04-0.28-0.1-0.52-0.17-0.7c-0.07-0.18-0.17-0.35-0.29-0.5c-0.12-0.15-0.27-0.26-0.44-0.33
			C25.17,21.62,24.96,21.58,24.73,21.58z"/>
		<path fill="#010101" d="M30.52,22.92c0.26,0.24,0.39,0.58,0.39,1.02s-0.13,0.78-0.39,1.02s-0.57,0.37-0.92,0.37
			c-0.36,0-0.67-0.12-0.93-0.37c-0.26-0.25-0.39-0.59-0.39-1.02c0-0.44,0.13-0.78,0.39-1.02c0.26-0.24,0.57-0.36,0.93-0.36
			S30.26,22.68,30.52,22.92z M30.17,24.64c0.16-0.17,0.24-0.4,0.24-0.7s-0.08-0.53-0.24-0.69c-0.16-0.16-0.35-0.24-0.58-0.24
			c-0.22,0-0.42,0.08-0.58,0.25c-0.17,0.17-0.25,0.39-0.25,0.68c0,0.3,0.08,0.53,0.25,0.7c0.16,0.17,0.36,0.25,0.58,0.25
			C29.82,24.89,30.01,24.81,30.17,24.64z M32.95,22.22l0.47,0.16l-2.86,6.99l-0.46-0.17L32.95,22.22z M34.63,26.78
			c0.26,0.24,0.39,0.58,0.39,1.02s-0.13,0.78-0.39,1.02c-0.26,0.24-0.57,0.37-0.92,0.37c-0.36,0-0.67-0.12-0.93-0.37
			c-0.26-0.25-0.39-0.59-0.39-1.02c0-0.44,0.13-0.78,0.39-1.02c0.26-0.24,0.57-0.36,0.93-0.36C34.07,26.41,34.37,26.54,34.63,26.78z
			 M34.28,28.5c0.16-0.17,0.24-0.4,0.24-0.7s-0.08-0.53-0.24-0.69c-0.16-0.16-0.35-0.24-0.58-0.24c-0.22,0-0.42,0.08-0.58,0.25
			c-0.17,0.17-0.25,0.39-0.25,0.68c0,0.3,0.08,0.53,0.25,0.7c0.16,0.17,0.36,0.25,0.58,0.25C33.93,28.75,34.12,28.66,34.28,28.5z"/>
	</g>
	<path fill="#1A618D" d="M25.39,0.02c-13.66,0-24.73,11.07-24.73,24.73c0,13.66,11.07,24.73,24.73,24.73
		c13.66,0,24.73-11.07,24.73-24.73C50.12,11.09,39.05,0.02,25.39,0.02z M25.39,39.11c-7.93,0-14.36-6.43-14.36-14.36
		c0-7.93,6.43-14.36,14.36-14.36c7.93,0,14.36,6.43,14.36,14.36C39.75,32.68,33.32,39.11,25.39,39.11z"/>
	<g>
		<path fill="#227ABF" d="M25,0.02c0,3.46,0,6.92,0,10.37c8,0.06,14.5,6.46,14.5,14.35c0,7.93-6.3,14.36-14.23,14.36
			c-7.93,0-14.3-6.43-14.3-14.36c0-1.46,0.25-2.88,0.66-4.21c-3.29-1.07-6.56-2.14-9.85-3.21c-0.73,2.34-1.12,4.83-1.12,7.41
			c0,13.66,11.08,24.73,24.73,24.73c13.66,0,24.48-11.07,24.48-24.73C49.87,11.13,39,0.08,25,0.02z"/>
	</g>
</g>
</svg>
